<svg id="Layer_3" enable-background="new 0 0 64 64" height="512"  fill="#162c56" viewBox="0 0 64 64" width="512" xmlns="http://www.w3.org/2000/svg"><g><path d="m16 27h-6c-.552 0-1 .448-1 1v6c0 .552.448 1 1 1h6c.552 0 1-.448 1-1v-4.111l3.651-3.129-1.302-1.519-2.551 2.187c-.182-.253-.463-.428-.798-.428zm-1 6h-2-2v-4h3.964l-1.642 1.407-.427-.854-1.789.895 1 2c.138.275.395.472.697.533.065.013.131.019.197.019.236 0 .468-.084.651-.241l1.349-1.156z"/><path d="m16.798 36.428c-.182-.253-.463-.428-.798-.428h-6c-.552 0-1 .448-1 1v6c0 .552.448 1 1 1h6c.552 0 1-.448 1-1v-4.111l3.651-3.129-1.302-1.519zm-1.798 5.572h-2-2v-4h3.964l-1.642 1.407-.427-.854-1.789.895 1 2c.138.275.395.472.697.533.065.013.131.019.197.019.236 0 .468-.084.651-.241l1.349-1.156z"/><path d="m19.349 43.241-2.551 2.187c-.182-.253-.463-.428-.798-.428h-6c-.552 0-1 .448-1 1v6c0 .552.448 1 1 1h6c.552 0 1-.448 1-1v-4.111l3.651-3.129zm-4.349 7.759h-2-2v-4h3.964l-1.642 1.407-.427-.854-1.789.895 1 2c.138.275.395.472.697.533.065.013.131.019.197.019.236 0 .468-.084.651-.241l1.349-1.156z"/><path d="m42 34c0 3.86 3.14 7 7 7s7-3.14 7-7-3.14-7-7-7-7 3.14-7 7zm7-5c2.757 0 5 2.243 5 5s-2.243 5-5 5-5-2.243-5-5 2.243-5 5-5z"/><path d="m51 34h2c0-2.206-1.794-4-4-4v2c1.103 0 2 .897 2 2z"/><path d="m62.879 51.523-5.63-10.379c.243-.425.388-.897.402-1.385.683-.309 1.232-.866 1.527-1.585.287-.701.292-1.469.038-2.16.497-.543.784-1.257.784-2.014 0-.777-.296-1.501-.811-2.046.264-.701.258-1.483-.042-2.199-.292-.699-.832-1.246-1.5-1.555-.032-.735-.333-1.443-.869-1.979-.549-.549-1.271-.851-2.02-.872-.309-.683-.867-1.232-1.585-1.527-.701-.287-1.469-.292-2.16-.038-1.084-.994-2.93-.985-4.013-.009v-13.775c0-1.654-1.346-3-3-3h-8c-2.488 0-4.888-1.206-6.418-3.225-1.337-1.764-3.372-2.775-5.582-2.775s-4.245 1.011-5.582 2.775c-1.53 2.019-3.93 3.225-6.418 3.225h-8c-1.654 0-3 1.346-3 3v50c0 1.654 1.346 3 3 3h40c1.654 0 3-1.346 3-3v-3.876l2-8 2.03 8.119c.102.406.445.706.861.751.037.004.073.006.109.006.375 0 .723-.211.894-.553l2.629-5.258 6.202 1.772c.387.11.803-.021 1.055-.336.252-.313.291-.748.099-1.102zm-14.769-25.963c.339-.68 1.408-.696 1.767-.022.141.266.395.454.69.512.294.059.601-.02.833-.212.289-.241.678-.305 1.015-.165.349.143.583.47.61.855.023.308.187.588.443.759s.577.213.871.116c.364-.122.758-.033 1.025.233.258.258.35.641.239 1-.088.288-.042.6.125.851.168.25.439.411.739.438.374.035.694.265.834.601.145.348.079.745-.173 1.036-.202.234-.284.547-.223.85s.258.561.534.698c.347.173.561.514.561.89 0 .365-.206.701-.538.877-.266.141-.454.395-.512.69-.059.295.02.601.212.833.24.289.303.678.165 1.015-.143.349-.47.583-.855.61-.308.023-.588.187-.759.443-.171.257-.214.579-.116.872.122.366.033.758-.233 1.024-.258.259-.641.351-1 .24-.288-.087-.599-.042-.851.125-.25.168-.411.439-.438.739-.035.374-.265.693-.601.834-.347.146-.745.08-1.036-.173-.234-.202-.548-.287-.851-.224-.303.061-.561.258-.698.535-.339.679-1.408.695-1.766.021-.141-.266-.395-.454-.69-.512-.064-.013-.129-.019-.193-.019-.232 0-.458.081-.64.231-.289.24-.677.304-1.015.165-.348-.143-.582-.47-.61-.854-.023-.308-.187-.588-.443-.759-.257-.171-.579-.215-.871-.116-.366.124-.758.033-1.024-.233-.258-.258-.35-.641-.24-1 .088-.288.042-.6-.125-.851-.168-.25-.439-.411-.739-.438-.374-.035-.693-.265-.834-.601-.145-.348-.079-.744.173-1.036.202-.234.284-.547.224-.85s-.258-.561-.534-.699c-.348-.172-.562-.513-.562-.889 0-.365.206-.701.538-.877.266-.141.454-.395.512-.69.059-.296-.02-.602-.212-.833-.24-.289-.303-.677-.165-1.015.143-.348.47-.582.854-.61.308-.023.588-.187.759-.443.171-.257.214-.579.116-.871-.122-.366-.033-.759.234-1.025.258-.258.641-.351 1-.239.288.087.6.042.851-.125.25-.168.411-.439.438-.739.035-.374.265-.694.601-.834.347-.145.745-.079 1.036.173.233.201.546.283.85.223.303-.062.561-.26.698-.535zm-4.215 23.993c-.215-.43-.704-.647-1.169-.514l-4.711 1.346 4.298-7.922c.298.109.61.179.929.189.309.683.866 1.232 1.585 1.526.7.288 1.471.292 2.161.038.236.217.509.385.8.515l-2.101 8.404zm1.105-39.553v13.776c-.082.026-.165.043-.245.076-.699.292-1.246.832-1.555 1.5-.068.003-.133.02-.2.027v-13.379c0-.552-.448-1-1-1h-5v-2h7c.551 0 1 .449 1 1zm-32-1.052c2.743-.284 5.311-1.721 7.012-3.965.956-1.26 2.409-1.983 3.988-1.983s3.032.723 3.988 1.983c1.701 2.245 4.269 3.682 7.012 3.965v3.052c0 .551-.449 1-1 1h-20c-.551 0-1-.449-1-1zm1 6.052h20c1.302 0 2.402-.839 2.816-2h4.184v13.491c-.401.507-.633 1.116-.651 1.751-.683.309-1.232.866-1.526 1.585-.288.701-.292 1.47-.038 2.161-.498.541-.785 1.255-.785 2.012 0 .776.296 1.5.811 2.045-.264.701-.258 1.483.042 2.2.292.698.832 1.245 1.5 1.554.02.474.164.931.399 1.343l-5.631 10.38c-.192.354-.153.789.099 1.103s.667.446 1.055.336l4.725-1.35v5.389h-34v-44h4.184c.414 1.161 1.514 2 2.816 2zm30 46h-40c-.551 0-1-.449-1-1v-50c0-.551.449-1 1-1h7v2h-5c-.552 0-1 .448-1 1v46c0 .552.448 1 1 1h36c.552 0 1-.448 1-1v-5.764l2 4v3.764c0 .551-.449 1-1 1zm11.275-11.961c-.465-.136-.955.084-1.169.514l-1.791 3.582-2.1-8.401c.304-.136.588-.315.831-.545.703.264 1.484.259 2.2-.042.698-.292 1.246-.832 1.554-1.5.305-.013.602-.084.887-.187l4.299 7.925z"/><path d="m30 34c4.962 0 9-4.038 9-9s-4.038-9-9-9-9 4.038-9 9 4.038 9 9 9zm0-16c3.86 0 7 3.14 7 7s-3.14 7-7 7-7-3.14-7-7 3.14-7 7-7z"/><path d="m27 30h6c.552 0 1-.448 1-1v-1c0-1.2-.542-2.266-1.382-3 .84-.734 1.382-1.8 1.382-3v-1c0-.552-.448-1-1-1h-6c-.552 0-1 .448-1 1v1c0 1.2.542 2.266 1.382 3-.84.734-1.382 1.8-1.382 3v1c0 .552.448 1 1 1zm1-8h4c0 1.103-.897 2-2 2s-2-.897-2-2zm4 6h-4c0-1.103.897-2 2-2s2 .897 2 2z"/><path d="m9 17h10v2h-10z"/><path d="m9 21h6v2h-6z"/><path d="m17 21h2v2h-2z"/><path d="m24 36h12v2h-12z"/><path d="m28 40h8v2h-8z"/><path d="m24 40h2v2h-2z"/><path d="m24 44h8v2h-8z"/><path d="m34 44h2v2h-2z"/><path d="m26 8h2c0-2.206-1.794-4-4-4v2c1.103 0 2 .897 2 2z"/><path d="m54.5 44.882h2v2.236h-2z" transform="matrix(.894 -.447 .447 .894 -14.713 29.677)"/></g></svg>