<?xml version="1.0" encoding="UTF-8"?>
<!DOCTYPE svg PUBLIC "-//W3C//DTD SVG 1.1//EN" "http://www.w3.org/Graphics/SVG/1.1/DTD/svg11.dtd">
<!-- Creator: CorelDRAW X7 -->
<svg xmlns="http://www.w3.org/2000/svg" xml:space="preserve" width="0.067in" height="0.067in" version="1.1" style="shape-rendering:geometricPrecision; text-rendering:geometricPrecision; image-rendering:optimizeQuality; fill-rule:evenodd; clip-rule:evenodd"
viewBox="0 0 67 67"
 xmlns:xlink="http://www.w3.org/1999/xlink">
 <defs>
  <style type="text/css">
   <![CDATA[
    .fil1 {fill:#EAEAEA}
    .fil12 {fill:#C1C2C2}
    .fil9 {fill:#BCBBBC}
    .fil4 {fill:#B8B8B9}
    .fil5 {fill:#B2B3B4}
    .fil3 {fill:#9A9B9C}
    .fil13 {fill:#969494}
    .fil6 {fill:#909292}
    .fil11 {fill:#828384}
    .fil2 {fill:#7C7D7E}
    .fil10 {fill:#787979}
    .fil7 {fill:#747577}
    .fil8 {fill:#5A5B5C}
    .fil0 {fill:#F08C37}
   ]]>
  </style>
 </defs>
 <g id="Layer_x0020_1">
  <metadata id="CorelCorpID_0Corel-Layer"/>
  <g id="_277455368">
   <path class="fil0" d="M62 61l-56 0 0 0 0 -38c0,0 0,0 0,0 0,0 3,0 3,0l39 0c1,0 13,0 14,0 0,0 0,8 0,9 0,10 0,19 0,28 0,0 0,1 0,1zm-60 4c0,0 0,0 0,0 0,0 0,0 1,0 0,1 0,1 0,1 0,0 0,0 0,0 1,0 0,0 1,0 2,1 2,1 5,1l52 0c0,0 0,0 1,0 0,0 0,0 0,0l1 -1c1,0 1,0 1,-1 1,0 1,0 1,0l0 -1c1,0 1,0 1,0 0,-1 0,-1 0,-1l1 -1c0,-1 0,-2 0,-2l0 -37c0,-2 0,-5 0,-8 0,0 0,0 0,0 -1,0 -1,-1 -1,-2l-1 -1c0,0 -1,0 -1,-1l-1 0c0,0 -1,-1 -2,-1 -1,0 -5,0 -7,0 -1,0 -1,0 -1,1l0 1c0,2 1,3 0,4 0,1 0,1 -1,1 0,0 0,0 0,0l0 1c-1,0 -1,0 -2,1 0,0 -1,0 -2,0 0,0 0,0 -1,0 0,0 -1,0 -1,-1 0,0 0,0 -1,0l-1 -2c0,0 0,0 0,0 0,0 0,0 0,-1 0,0 -1,0 -1,-1 0,-1 1,-3 0,-4 0,0 -8,0 -9,0 -2,0 -10,0 -10,0 0,1 0,3 0,4 0,1 -1,2 -1,3l-1 1c0,0 0,0 0,0 0,0 -1,1 -2,1 0,0 -1,0 -2,0 -1,0 -1,0 -1,0 -1,-1 -1,-1 -2,-1l0 -1c0,0 0,0 0,0 -1,0 -1,-1 -1,-2 0,0 0,-1 0,-1 0,-1 0,-3 0,-4 -1,0 -9,0 -9,0 0,0 0,0 0,1 0,0 0,0 -1,0 0,0 0,0 0,0 0,0 0,0 0,0 -1,0 -1,1 -2,1 -1,1 0,1 -1,2l0 1c-1,0 -1,1 -1,1 0,1 0,2 0,2l0 43 0 1c1,1 0,0 1,1l0 1c0,0 0,0 1,0 0,0 0,0 0,1z"/>
   <path class="fil0" d="M57 39c0,-1 0,-8 0,-9 0,-4 1,-3 0,-3l-10 0c-2,0 -2,0 -2,0 0,2 0,11 0,11 0,1 0,0 1,0l11 1z"/>
   <path class="fil0" d="M22 38c0,0 0,-9 0,-10 0,-1 0,-1 -1,-1 -1,0 -11,0 -12,0 0,0 0,11 0,11 1,1 8,0 10,0 0,0 3,1 3,0z"/>
   <path class="fil0" d="M45 56c0,0 1,0 2,0l10 0c0,0 0,0 0,-1l0 -10c0,0 0,-1 0,-1l-12 0c0,0 0,0 0,1l0 11c0,0 0,0 0,0z"/>
   <path class="fil0" d="M22 44c-1,0 -8,0 -10,0 0,0 -2,0 -3,0 0,1 0,10 0,11l0 1c1,0 10,0 11,0l2 0c0,0 0,-8 0,-9 0,-1 0,-2 0,-3z"/>
   <path class="fil0" d="M40 56c0,-1 0,-8 0,-9 0,0 0,-3 0,-3l-12 0c0,1 0,5 0,6l0 6c0,0 0,0 0,0l1 0c2,0 11,0 11,0z"/>
   <path class="fil0" d="M28 38c1,0 12,1 12,0 0,0 0,-8 0,-10l0 -1c0,0 -10,0 -12,0l0 0c0,0 0,10 0,11z"/>
   <path class="fil0" d="M51 16c1,-1 1,-1 1,-3l0 -10c0,-1 0,-1 -1,-2 0,0 -1,-1 -1,-1 -1,0 -3,0 -3,0 -1,0 -1,1 -1,1 -1,0 -1,1 -1,1l0 10c0,1 0,3 0,4 1,0 1,1 2,1l3 0c0,0 0,0 1,0 0,0 0,-1 0,-1 0,0 0,0 0,0z"/>
   <path class="fil0" d="M22 15c0,0 0,0 0,-1 0,0 0,-1 0,-1l0 -10c0,-3 -2,-3 -5,-3 0,0 -1,1 -1,1 0,1 -1,1 -1,1l0 10c0,1 0,4 1,4 1,1 1,1 2,1 1,0 2,0 2,0 1,0 1,0 1,0 0,0 1,-1 1,-2z"/>
   <path class="fil1" d="M6 61c0,-8 0,-16 0,-23 0,-5 0,-10 0,-14 0,-1 0,-1 0,-1l44 0c4,0 8,0 11,0l0 38 -55 0zm0 0l56 0c0,-1 0,-3 0,-5l0 -28c0,-1 0,-5 0,-5 -1,0 -26,0 -28,0 -3,0 -28,0 -28,0 0,0 0,25 0,28 0,2 0,9 0,10z"/>
   <path class="fil2" d="M6 61c0,-1 0,-8 0,-10 0,-3 0,-28 0,-28 0,0 25,0 28,0 2,0 27,0 28,0 0,0 0,4 0,5l0 28c0,2 0,4 0,5 0,0 0,-1 0,-1 0,-9 0,-18 0,-28 0,-1 0,-9 0,-9 -1,0 -13,0 -14,0l-39 0c0,0 -3,0 -3,0 0,0 0,0 0,0l0 38 0 0z"/>
   <path class="fil3" d="M45 56c0,0 0,0 0,0l0 -11c0,-1 0,-1 0,-1l12 0c0,0 0,1 0,1l0 10c0,1 0,1 0,1l-10 0c-1,0 -2,0 -2,0zm0 -12c0,0 0,11 0,12l12 0c1,-1 0,-9 0,-10 0,-1 1,-2 0,-2 0,0 -12,0 -12,0z"/>
   <path class="fil4" d="M28 44c1,0 5,0 6,0l5 0c1,0 1,0 1,0 0,0 0,3 0,3 0,1 0,8 0,9 0,0 -1,0 -1,0 -2,0 -11,0 -11,0 -1,0 0,-1 0,-1l0 -9c0,-1 0,-1 0,-2zm0 0c0,0 0,0 -1,0 0,0 0,9 0,11 0,0 0,1 1,1 0,0 9,0 11,0 2,0 1,0 1,-1 0,-2 0,-11 0,-11 0,0 -10,0 -12,0 0,0 0,0 0,0 0,0 0,0 0,0 0,0 0,0 0,0z"/>
   <path class="fil5" d="M28 38c0,0 0,0 0,0 0,0 0,-1 0,-1l0 -4c0,-1 0,-6 0,-6 0,0 8,0 9,0 1,0 3,0 3,0 0,0 0,11 0,11 0,1 -9,1 -12,1l0 0c0,0 0,0 0,-1zm12 -11c0,0 -1,0 -1,0 -1,0 -1,0 -2,0 -3,0 -6,0 -9,0 -1,0 -1,0 -1,1 0,1 0,10 1,11 0,0 12,0 12,0 0,-1 0,-12 0,-12z"/>
   <path class="fil6" d="M57 39l-11 -1c-1,0 -1,1 -1,0 0,0 0,-9 0,-11 0,0 0,0 2,0l10 0c1,0 0,-1 0,3 0,1 0,8 0,9zm-12 -12l0 12c0,0 1,0 1,0 2,0 11,0 11,0 1,-2 0,-6 0,-7l0 -5c0,0 0,0 0,0l-12 0c0,0 0,0 0,0z"/>
   <path class="fil7" d="M22 44c0,1 0,2 0,3 0,1 0,9 0,9l-2 0c-1,0 -10,0 -11,0l0 -1c0,-1 0,-10 0,-11 1,0 3,0 3,0 2,0 9,0 10,0zm0 12c0,0 0,-11 0,-12 0,0 0,0 0,0l0 0c-1,0 -12,0 -13,0 0,1 0,5 0,6 0,1 0,6 0,6 1,0 10,0 11,0 1,0 2,0 2,0z"/>
   <path class="fil8" d="M28 38c0,-1 0,-11 0,-11l0 0c2,0 12,0 12,0l0 1c0,2 0,10 0,10 0,1 -11,0 -12,0zm0 0c0,1 0,1 0,1l0 0c3,0 12,0 12,-1 0,0 0,-11 0,-11 0,0 -2,0 -3,0 -1,0 -9,0 -9,0 0,0 0,5 0,6l0 4c0,0 0,1 0,1 0,0 0,0 0,0z"/>
   <path class="fil2" d="M22 38c0,1 -3,0 -3,0 -2,0 -9,1 -10,0 0,0 0,-11 0,-11 1,0 11,0 12,0 1,0 1,0 1,1 0,1 0,10 0,10zm-13 0c1,1 3,1 3,1 2,0 9,0 10,0 0,-1 0,-12 0,-12 0,0 -3,0 -3,0 -2,0 -9,0 -10,0 0,0 0,2 0,3 0,1 0,2 0,3 0,1 0,4 0,5z"/>
   <path class="fil7" d="M40 56c0,0 -9,0 -11,0l-1 0c0,0 0,0 0,0l0 -6c0,-1 0,-5 0,-6l12 0c0,0 0,0 -1,0l-5 0c-1,0 -5,0 -6,0 0,1 0,1 0,2l0 9c0,0 -1,1 0,1 0,0 9,0 11,0 0,0 1,0 1,0z"/>
   <path class="fil9" d="M22 56c0,0 -1,0 -2,0 -1,0 -10,0 -11,0 0,0 0,-5 0,-6 0,-1 0,-5 0,-6 1,0 12,0 13,0 0,0 0,0 0,0 -1,0 -12,0 -13,0 0,0 0,8 0,9 0,1 0,3 0,3 1,0 6,0 7,0 1,0 5,0 6,0l0 0z"/>
   <path class="fil10" d="M17 0c3,0 5,0 5,3l0 10c0,0 0,1 0,1 0,1 0,1 0,1 0,0 0,-1 0,-2l0 -10c0,-1 0,-2 0,-2 -1,0 0,0 -1,0 0,-1 -1,-1 -1,-1l-2 0c-1,0 -1,0 -1,0z"/>
   <path class="fil4" d="M52 17c1,0 1,0 1,-1 1,-1 0,-2 0,-4l0 -1c0,-1 0,-1 1,-1 2,0 6,0 7,0 1,0 2,1 2,1 0,0 0,0 0,0 0,0 0,0 0,0 0,0 -1,-1 -1,-1 0,0 -1,0 -1,0 0,0 0,0 0,0 -2,0 -5,0 -7,0 0,0 0,0 -1,0 0,2 1,4 0,6 0,0 0,0 -1,1z"/>
   <path class="fil11" d="M51 16c0,0 1,-1 1,-1 0,-1 0,-9 0,-10 0,-1 0,-2 0,-3 0,0 0,0 -1,-1 1,1 1,1 1,2l0 10c0,2 0,2 -1,3z"/>
   <path class="fil12" d="M9 38c0,1 0,1 0,1l7 0c0,0 6,0 6,0 0,-1 0,-3 0,-3 0,-2 0,-8 0,-9 0,0 0,0 0,0 0,0 -10,0 -12,0 0,0 0,0 -1,0 1,0 8,0 10,0 0,0 3,0 3,0 0,0 0,11 0,12 -1,0 -8,0 -10,0 0,0 -2,0 -3,-1z"/>
   <path class="fil13" d="M3 65c-1,0 -1,0 -1,0 0,0 0,0 0,0 0,0 0,0 0,0l0 0c0,0 0,0 0,0 0,0 0,0 0,0 0,0 0,0 1,0z"/>
  </g>
 </g>
</svg>
