<svg id="Capa_1" enable-background="new 0 0 512 512" fill="#162c56" height="512" viewBox="0 0 512 512" width="512" xmlns="http://www.w3.org/2000/svg"><g><path d="m443.069 2.93c-1.859-1.86-4.439-2.93-7.069-2.93h-360c-2.63 0-5.21 1.07-7.07 2.93s-2.93 4.44-2.93 7.07v492c0 2.63 1.07 5.21 2.93 7.07s4.44 2.93 7.07 2.93h360c2.63 0 5.21-1.07 7.069-2.93 1.86-1.86 2.931-4.44 2.931-7.07v-58c0-5.51-4.49-10-10-10s-10 4.49-10 10v48h-340v-472h340v334c0 5.51 4.49 10 10 10s10-4.49 10-10v-.01-343.99c0-2.63-1.07-5.21-2.931-7.07z"/><circle cx="436" cy="399" r="10"/><path d="m404.412 134.463c-.231-.453-47.809-66.323-47.809-66.323-.016-.023-.036-.035-.053-.055-1.865-2.539-4.838-4.085-8.05-4.085h-185c-3.213 0-6.188 1.547-8.053 4.088-.016.02-.035.031-.051.053 0 0-47.577 65.868-47.808 66.323-1.707 3.352-1.388 7.378.826 10.42l89.5 123c1.882 2.586 4.887 4.116 8.086 4.116h100c3.198 0 6.204-1.53 8.086-4.116l89.5-123c2.213-3.042 2.532-7.069.826-10.421zm-145.876 117.537h-5.073l-30.565-103h66.203zm24.636-123h-54.101l27.341-37.812zm19.328-7.312-26.672-37.688h53.344zm46.088-30.5 27.341 37.812h-54.1zm-139.001 30.625-26.759-37.813h54.101zm-46.174-30.625 26.759 37.812h-54.101zm-27.269 57.812h65.893l30.565 103h-21.511zm164.765 103h-21.511l30.565-103h65.893z"/><path d="m126 428.5c-5.51 0-10 4.49-10 10s4.49 10 10 10h85c5.51 0 10-4.49 10-10s-4.49-10-10-10z"/><circle cx="256" cy="438.5" r="10"/><path d="m396 398.5c0-5.523-4.478-10-10-10h-260c-5.523 0-10 4.477-10 10s4.477 10 10 10h260c5.522 0 10-4.477 10-10z"/><path d="m116 358.5c0 5.523 4.477 10 10 10h107c5.523 0 10-4.477 10-10s-4.477-10-10-10h-107c-5.523 0-10 4.477-10 10z"/><path d="m386 348.5h-108c-5.522 0-10 4.477-10 10s4.478 10 10 10h108c5.522 0 10-4.477 10-10s-4.478-10-10-10z"/><path d="m306 328.5c5.522 0 10-4.477 10-10s-4.478-10-10-10h-100c-5.523 0-10 4.477-10 10s4.477 10 10 10z"/></g></svg>