<?xml version="1.0" encoding="utf-8"?>
<!-- Generator: Adobe Illustrator 17.0.0, SVG Export Plug-In . SVG Version: 6.00 Build 0)  -->
<!DOCTYPE svg PUBLIC "-//W3C//DTD SVG 1.1//EN" "http://www.w3.org/Graphics/SVG/1.1/DTD/svg11.dtd">
<svg version="1.1" id="Layer_1" xmlns="http://www.w3.org/2000/svg" xmlns:xlink="http://www.w3.org/1999/xlink" x="0px" y="0px"
	 width="124.09px" height="104.176px" viewBox="0 0 124.09 104.176" enable-background="new 0 0 124.09 104.176"
	 xml:space="preserve">
<g>
	<path d="M84.716,18.49c-1.06,0-2.053,0-3.045,0c-25.656,0-51.313,0-76.969-0.003c-0.749,0-1.735,0.256-2.197-0.118
		c-0.993-0.803-2.346-1.926-2.369-2.945c-0.023-1.001,1.241-2.313,2.272-2.966c0.793-0.503,2.1-0.243,3.178-0.243
		c25.49-0.009,50.98-0.022,76.469,0.023c1.84,0.003,2.868-0.255,3.615-2.319c2.023-5.59,7.47-9.036,13.414-9.01
		c5.97,0.026,11.254,3.476,13.351,9.113c0.695,1.868,1.598,2.369,3.413,2.22c1.736-0.142,3.503-0.092,5.241,0.05
		c1.8,0.147,2.953,1.18,2.936,3.075c-0.018,2.014-1.222,3.045-3.167,3.099c-2.488,0.069-4.98,0.017-7.523,0.017
		c-2.252,7.027-6.865,11.3-14.198,11.344C91.692,29.87,87.009,25.575,84.716,18.49z M99.092,23.549
		c4.609-0.035,8.208-3.713,8.138-8.317c-0.068-4.452-3.712-8.102-8.138-8.151c-4.498-0.051-8.233,3.698-8.246,8.275
		C90.833,19.961,94.479,23.584,99.092,23.549z"/>
	<path d="M87.221,87.507c6.78,0,13.604,0,20.429,0c3.918,0,7.836-0.003,11.753,0c3.258,0.002,4.676,0.974,4.644,3.171
		c-0.031,2.175-1.41,3.101-4.746,3.105c-9.836,0.012-19.673,0.052-29.508-0.034c-1.907-0.017-2.871,0.424-3.621,2.372
		c-2.215,5.752-7.529,9.064-13.701,8.961c-5.918-0.098-11.109-3.682-13.162-9.406c-0.574-1.601-1.313-1.924-2.855-1.919
		c-17.088,0.053-34.176,0.036-51.264,0.029c-3.799-0.001-5.215-0.862-5.235-3.123c-0.021-2.286,1.402-3.156,5.157-3.156
		c17.088,0,34.176-0.004,51.264,0.005c1.268,0.001,2.205,0.042,2.817-1.619c2.262-6.141,7.598-9.821,13.7-9.818
		c6.156,0.004,11.332,3.823,13.738,10.13C86.779,86.593,86.973,86.962,87.221,87.507z M72.929,82.453
		c-4.6-0.026-8.308,3.559-8.366,8.088c-0.057,4.42,3.725,8.293,8.183,8.379c4.452,0.086,8.253-3.663,8.302-8.187
		C81.097,86.149,77.498,82.479,72.929,82.453z"/>
	<path d="M40.866,49.922c5.769,0,11.43,0,17.09,0c20.495,0,40.99-0.004,61.485,0.013c0.985,0.001,2.257-0.157,2.885,0.368
		c0.832,0.698,1.666,2.05,1.563,3.021c-0.101,0.952-1.251,1.966-2.182,2.594c-0.585,0.394-1.617,0.151-2.448,0.152
		c-25.41,0.01-50.821,0.037-76.231-0.027c-1.821-0.005-2.545,0.585-3.158,2.24c-2.048,5.527-7.48,9.18-13.331,9.221
		c-6.013,0.042-11.44-3.516-13.535-9.231c-0.688-1.876-1.622-2.363-3.448-2.233c-2.155,0.152-4.331,0.08-6.495,0.019
		c-1.992-0.056-3.117-1.155-3.079-3.152c0.036-1.874,1.151-2.915,3.014-2.964c2.498-0.065,5.003,0.069,7.494-0.078
		c0.709-0.042,1.776-0.606,2.005-1.193c2.542-6.523,7.196-10.245,14.225-10.104c7.042,0.141,11.527,4.118,13.776,10.706
		C40.547,49.427,40.657,49.562,40.866,49.922z M26.383,44.813c-4.581,0.016-8.297,3.753-8.23,8.276
		c0.066,4.461,3.683,8.049,8.159,8.094c4.658,0.047,8.266-3.503,8.282-8.148C34.609,48.381,31.03,44.796,26.383,44.813z"/>
	<path fill="#FFFFFF" d="M99.092,23.549c-4.613,0.035-8.259-3.588-8.246-8.194c0.013-4.577,3.748-8.325,8.246-8.275
		c4.426,0.05,8.069,3.7,8.138,8.151C107.3,19.835,103.701,23.514,99.092,23.549z"/>
	<path fill="#FFFFFF" d="M72.929,82.453c4.569,0.026,8.168,3.697,8.119,8.28c-0.049,4.524-3.85,8.273-8.302,8.187
		c-4.457-0.086-8.239-3.958-8.183-8.379C64.621,86.011,68.329,82.426,72.929,82.453z"/>
	<path fill="#FFFFFF" d="M26.383,44.813c4.647-0.016,8.227,3.568,8.211,8.222c-0.016,4.646-3.624,8.195-8.282,8.148
		c-4.476-0.045-8.093-3.633-8.159-8.094C18.085,48.566,21.802,44.829,26.383,44.813z"/>
</g>
</svg>
