<svg width="512" height="512" xmlns="http://www.w3.org/2000/svg">
 <!-- Created with UXWing SVG Editor - https://uxwing.com/svg-icon-editor/ -->

 <g>
  <title>background</title>
  <rect fill="none" id="canvas_background" height="514" width="514" y="-1" x="-1"/>
  <g display="none" overflow="visible" y="0" x="0" height="100%" width="100%" id="canvasGrid">
   <rect fill="url(#gridpattern)" stroke-width="0" y="0" x="0" height="100%" width="100%"/>
  </g>
 </g>
 <g>
  <title>Layer 1</title>
  <style transform="matrix(1.7777778837415923,0,0,1.7777778837415923,0,0) " type="text/css">.st0{fill:#231F20;}
	.st1{fill:#E61E25;}
	.st2{fill:#089949;}
	.st3{fill:#FFFFFF;}
	.st4{fill:#D81F26;}
	.st5{fill:#233E93;}
	.st6{fill:#F16522;}
	.st7{fill:#0398C3;}
	.st8{fill:#DE1E39;}
	.st9{fill:#00AD65;}
	.st10{fill:#FFFFFB;}
	.st11{fill:#CE2031;}
	.st12{fill:#A81D44;}
	.st13{fill:#008757;}
	.st14{fill:#ED3342;}
	.st15{fill:#F8EC3B;}
	.st16{fill:#F37C20;}
	.st17{fill:#F1E923;}
	.st18{fill:#020202;}
	.st19{fill:#E32A27;}
	.st20{fill:#EC1C2B;}
	.st21{fill:#28439B;}
	.st22{fill:#E32B25;}
	.st23{fill:#FDDB00;}
	.st24{fill:#E71D2E;}
	.st25{fill:#0D8943;}
	.st26{fill:#F58722;}
	.st27{fill:#333493;}
	.st28{fill:#D52028;}
	.st29{fill:#2B4A9E;}
	.st30{fill:#1D9E49;}
	.st31{fill:#DB1F26;}
	.st32{fill:#DD1F28;}
	.st33{fill:#35469C;}
	.st34{fill:#ED2424;}
	.st35{fill:#018B45;}
	.st36{fill:#DD1F26;}
	.st37{fill:#0A9D49;}
	.st38{fill:#E81E25;}
	.st39{fill:#293580;}
	.st40{fill:#D91F26;}
	.st41{fill:#EC1C25;}
	.st42{fill:#27B36D;}
	.st43{fill:#FBDF00;}
	.st44{fill:#3EB44A;}
	.st45{fill:#ED2E33;}
	.st46{fill:#DF252F;}
	.st47{fill:#2F4C9F;}
	.st48{fill:#F6CD0F;}
	.st49{fill:#DC1F28;}
	.st50{fill:#117F40;}
	.st51{fill:#E13131;}
	.st52{fill:#2B2D7E;}
	.st53{fill:#FCD900;}
	.st54{fill:#038A45;}
	.st55{fill:#EC2025;}
	.st56{fill:#EC1C2A;}
	.st57{fill:#2651A3;}
	.st58{fill:#0D804B;}
	.st59{fill:#354EA0;}
	.st60{fill:none;}
	.st61{fill:#DF1F2A;}
	.st62{fill:#FFFFFA;}
	.st63{fill:#F9D10B;}
	.st64{fill:#DF1F26;}
	.st65{fill:#009651;}</style>
  <g stroke="null" id="svg_14">
   <g stroke="null" transform="matrix(4.977778003818224,0,0,4.977778003818224,-463.87063240414255,-457.752887006176) " id="svg_5">
    <g stroke="null" id="svg_6">
     <path stroke-width="0" stroke="null" id="svg_7" d="m194.594543,143.588749c0,5.8 -1,11.5 -2.9,16.7l-94.3,0c-1.8,-5.2 -2.8,-10.9 -2.8,-16.7c0,-5.9 1,-11.5 2.8,-16.7l94.3,0c1.9,5.2 2.9,10.8 2.9,16.7z" class="st10"/>
     <path stroke-width="0" stroke="null" id="svg_8" d="m191.694543,160.288749c-1,2.9 -2.3,5.7 -3.8,8.3c-8.6,15 -24.8,25 -43.3,25c-18.5,0 -34.7,-10 -43.3,-25c-1.5,-2.6 -2.8,-5.4 -3.8,-8.3l94.2,0z" class="st25"/>
     <path stroke-width="0" stroke="null" id="svg_9" d="m191.694543,126.888749l-94.3,0c1,-2.9 2.3,-5.7 3.8,-8.3c8.7,-15 24.9,-25 43.4,-25c18.5,0 34.7,10 43.3,25c1.5,2.6 2.8,5.4 3.8,8.3z" class="st26"/>
    </g>
    <g stroke="null" id="svg_10">
     <g stroke="null" id="svg_11">
      <path stroke-width="0" stroke="null" id="svg_12" d="m144.594543,130.388749c7.2,0 13.2,5.9 13.2,13.2c0.1,7.2 -6,13.3 -13.2,13.2c-7.3,0 -13.2,-6 -13.2,-13.2c0,-7.3 5.9,-13.2 13.2,-13.2zm-7.5,4.4c-0.1,0.1 -0.3,0.2 -0.4,0.3c-0.4,0.4 -1,0.7 -0.7,1.4c0,0.1 -0.3,0.5 -0.4,0.5c-0.7,-0.1 -0.8,0.5 -1.1,0.9c-0.2,0.3 -0.5,0.6 -0.1,1.1c0.1,0.1 -0.2,0.6 -0.3,0.7c-0.6,0.1 -0.6,0.6 -0.7,1c-0.1,0.4 -0.4,0.8 0.1,1.2c0.1,0.1 0.1,0.6 0,0.6c-0.8,0.4 -0.5,1 -0.5,1.6c0,0.3 0,0.5 0.4,0.7c0.4,0.2 0.4,0.5 0.1,0.8c-0.4,0.5 -0.1,1.7 0.5,2c0.2,0.1 0.4,0.5 0.4,0.6c-0.5,0.7 0.1,1.2 0.4,1.7c0.1,0.2 0.4,0.2 0.5,0.3c0.2,0.2 0.6,0.4 0.6,0.5c-0.2,0.6 0.2,0.9 0.6,1.3c0.3,0.3 0.5,0.6 1,0.4c0.1,0 0.5,0.3 0.5,0.4c-0.1,0.7 0.5,0.8 0.9,1.1c0.3,0.2 0.6,0.5 1,0.1c0.1,-0.1 0.6,0.1 0.6,0.2c0.2,0.8 0.8,0.7 1.4,0.9c0.3,0.1 0.5,0.1 0.8,-0.2c0.1,-0.1 0.7,-0.1 0.7,0c0.3,0.7 0.9,0.4 1.3,0.5c0.4,0 0.8,0.1 1,-0.4c0,-0.1 0.6,-0.2 0.6,-0.1c0.4,0.6 1,0.2 1.4,0.1c0.4,-0.1 0.7,-0.1 0.8,-0.6c0,-0.1 0.5,-0.4 0.6,-0.3c0.7,0.5 1.2,-0.1 1.7,-0.4c0.2,-0.1 0.2,-0.4 0.3,-0.5c0.2,-0.2 0.4,-0.6 0.5,-0.5c0.6,0.2 0.9,-0.2 1.3,-0.6c0.3,-0.3 0.6,-0.5 0.4,-1c0,-0.1 0.3,-0.5 0.4,-0.5c0.7,0.1 0.8,-0.5 1.1,-0.9c0.2,-0.3 0.5,-0.6 0.1,-1c-0.1,-0.1 0.1,-0.6 0.2,-0.6c0.8,-0.2 0.7,-0.8 0.9,-1.4c0.1,-0.3 0.2,-0.5 -0.2,-0.7c-0.3,-0.2 -0.2,-0.6 0.1,-0.8c0.6,-0.4 0.6,-1.7 0,-2.1c-0.3,-0.2 -0.4,-0.6 -0.1,-0.8c0.5,-0.4 0.2,-0.8 0.1,-1.2c-0.1,-0.4 -0.1,-0.9 -0.7,-1c-0.1,0 -0.4,-0.5 -0.3,-0.6c0.5,-0.7 -0.1,-1.2 -0.4,-1.7c-0.1,-0.2 -0.4,-0.3 -0.6,-0.3c-0.4,-0.1 -0.7,-0.2 -0.5,-0.6c0.2,-0.5 -0.1,-0.8 -0.4,-1.1c-0.3,-0.3 -0.6,-0.8 -1.2,-0.5c-0.1,0 -0.5,-0.3 -0.5,-0.4c0.1,-0.7 -0.5,-0.8 -0.9,-1.1c-0.3,-0.2 -0.6,-0.4 -1,-0.1c-0.3,0.2 -0.6,0 -0.7,-0.3c-0.3,-0.7 -1.4,-1 -2,-0.5c-0.3,0.2 -0.6,0.2 -0.8,-0.1c-0.4,-0.6 -1.7,-0.5 -2.1,0c-0.1,0.2 -0.6,0.2 -0.7,0.2c-0.4,-0.5 -0.8,-0.3 -1.2,-0.2c-0.4,0.1 -0.9,0.2 -1,0.7c0,0.1 -0.5,0.2 -0.8,0.2c-0.2,0 -0.5,-0.1 -0.7,0c-0.3,0.1 -0.6,0.3 -0.9,0.5c-0.1,0.1 -0.2,0.2 -0.2,0.3c-0.1,0.4 -0.5,0.5 -1.2,0.3z" class="st27"/>
      <path stroke-width="0" stroke="null" id="svg_13" d="m142.794543,144.988749c-0.2,0 -0.4,0 -0.5,0.1c-1.9,1.6 -4.2,2.4 -6.3,3.5c0,0 -0.1,0 -0.2,-0.2c2,-1.2 4,-2.3 6,-3.5c0.1,-0.1 0.3,-0.1 0.5,-0.2c0.1,-0.1 0.2,-0.2 0.2,-0.3c-0.1,0 -0.3,-0.1 -0.4,-0.1c-2.1,1 -4.4,1.2 -6.6,1.7c-0.1,0 -0.3,0 -0.4,0c0,-0.1 0,-0.1 0,-0.2c2.4,-0.7 4.8,-1.4 7.4,-2.1c-0.2,-0.1 -0.4,-0.2 -0.6,-0.1c-2.4,0.5 -4.7,-0.1 -7,-0.1c0,0 -0.1,0 -0.2,-0.1c1.4,-0.1 2.7,-0.2 4,-0.2c1.2,0 2.5,0 3.8,0c-2.6,-0.7 -5,-1.4 -7.4,-2.1c0,-0.1 0,-0.1 0.1,-0.2c1.2,0.2 2.3,0.4 3.5,0.7c1.2,0.3 2.3,0.7 3.4,1c0.2,0 0.3,0 0.5,0c-0.1,-0.1 -0.2,-0.3 -0.4,-0.4c-2.3,-0.9 -4.2,-2.5 -6.2,-3.7c0,-0.1 0.1,-0.1 0.1,-0.2c2.3,1.2 4.5,2.5 6.8,3.7c-1.8,-1.8 -3.5,-3.6 -5.2,-5.4c0.1,-0.1 0.1,-0.1 0.2,-0.2c1.8,1.7 3.8,3.1 5.2,5.2c0.1,0 0.1,-0.1 0.2,-0.1c0,-0.2 0,-0.4 -0.1,-0.5c-1.6,-1.9 -2.4,-4.2 -3.5,-6.3c0,0 0,-0.1 0.2,-0.2c1.2,2 2.3,4 3.5,6c0.1,0.1 0.1,0.3 0.2,0.5c0.1,0.1 0.2,0.2 0.3,0.2c0,-0.1 0.1,-0.3 0.1,-0.4c-1.1,-2.3 -1.3,-4.9 -1.9,-7.3c0,0 0,-0.1 0.1,-0.2c0.8,2.6 1.5,5.1 2.3,7.9c0.1,-0.3 0.2,-0.5 0.1,-0.6c-0.5,-2.4 0,-4.8 0.1,-7.2c0,0 0,0 0.1,-0.1c0.1,1.4 0.2,2.7 0.2,4c0,1.3 0,2.5 0,3.8c0.8,-2.7 1.5,-5.2 2.3,-7.8c0.1,0 0.2,0 0.3,0.1c-0.6,2.3 -1.2,4.5 -1.8,6.8c-0.1,0.2 -0.2,0.5 -0.3,0.7c0,0.1 0.1,0.2 0.1,0.3c0.1,0 0.2,-0.1 0.3,-0.1c0.1,-0.2 0.1,-0.3 0.2,-0.5c1.2,-2 2.3,-4 3.5,-6c0.1,0 0.1,0.1 0.2,0.1c-0.3,0.6 -0.6,1.2 -0.9,1.8c-0.8,1.6 -1.5,3.3 -2.7,4.6c-0.1,0.1 0,0.3 -0.1,0.5c0.1,-0.1 0.3,-0.1 0.4,-0.2c1.3,-2 3.3,-3.3 5,-4.9c0,0 0.1,0 0.1,-0.1c0,0 0.1,0.1 0.1,0.1c-1.7,1.8 -3.5,3.6 -5.3,5.5c0.1,0 0.3,0 0.4,-0.1c1.8,-1.6 4.1,-2.4 6.2,-3.5c0.1,0 0.2,-0.1 0.3,-0.1c0,0.1 0.1,0.1 0.1,0.2c-2,1.2 -4,2.3 -6,3.5c-0.2,0.1 -0.4,0.1 -0.5,0.2c-0.1,0.1 -0.1,0.2 -0.2,0.3c0.1,0 0.2,0.1 0.3,0.1c0,0 0.1,0 0.1,0c2.3,-1.1 4.9,-1.3 7.4,-1.9c0,0.1 0,0.1 0.1,0.2c-2.6,0.8 -5.1,1.5 -7.8,2.3c0.3,0 0.6,0.1 0.8,0.1c2.4,-0.5 4.7,0.1 7.1,0.2c-0.9,0.1 -1.7,0.1 -2.6,0.2c-0.9,0.1 -1.8,0.1 -2.7,0.1c-0.8,0 -1.6,-0.4 -2.5,-0.1c2.7,0.8 5.3,1.5 7.9,2.3c0,0.1 0,0.1 -0.1,0.2c-2.4,-0.7 -5,-0.8 -7.3,-1.9c-0.1,-0.1 -0.2,-0.1 -0.3,-0.1c-0.1,0 -0.2,0.1 -0.2,0.1c0,0.1 0,0.2 0.1,0.2c0.2,0.1 0.3,0.1 0.5,0.2c2,1.2 4,2.3 6.1,3.5c-0.1,0.1 -0.1,0.2 -0.2,0.3c-2.3,-1.2 -4.5,-2.5 -6.9,-3.8c0.1,0.2 0.2,0.4 0.3,0.5c1.9,1.4 3.3,3.3 4.9,5c0,0 0,0.1 0.1,0.3c-1,-0.9 -2,-1.7 -2.8,-2.5c-0.8,-0.8 -1.6,-1.7 -2.4,-2.6c-0.1,-0.1 -0.3,-0.2 -0.5,-0.3c1.3,2.4 2.5,4.6 3.8,6.9c-0.1,0.1 -0.2,0.1 -0.3,0.2c-1.2,-2 -2.3,-4 -3.5,-6c-0.1,-0.1 -0.1,-0.3 -0.2,-0.4c-0.1,-0.1 -0.2,-0.1 -0.3,-0.2c0,0.1 -0.1,0.3 -0.1,0.4c0.3,0.8 0.6,1.6 0.8,2.4c0.4,1.7 0.7,3.4 1.1,5.1c-0.1,0 -0.1,0 -0.2,0c-0.7,-2.5 -1.5,-5.1 -2.3,-7.7c0,0.2 -0.2,0.3 -0.1,0.5c0.5,2.4 -0.1,4.7 -0.1,7.1c0,0 0,0.1 -0.1,0.3c-0.1,-1.5 -0.1,-2.8 -0.2,-4.1c-0.2,-1.3 0.2,-2.5 0,-3.7c-0.8,2.6 -1.5,5.2 -2.3,7.7c-0.1,0 -0.1,0 -0.2,-0.1c0.6,-2.4 0.8,-4.9 1.8,-7.2c0,-0.1 0.1,-0.2 0.1,-0.2c0,-0.1 0,-0.3 -0.1,-0.4c-0.1,0.1 -0.3,0.2 -0.3,0.3c-0.6,1.6 -1.6,3 -2.5,4.4c-0.4,0.6 -0.8,1.3 -1.3,1.9c-0.1,0 -0.1,-0.1 -0.2,-0.1c1.3,-2.2 2.6,-4.5 3.8,-6.7c0,0 -0.1,-0.1 -0.1,0c-1.8,1.8 -3.6,3.5 -5.4,5.2c-0.1,-0.1 -0.1,-0.1 -0.2,-0.2c1.7,-1.8 3.1,-3.8 5.2,-5.2c0.2,-0.2 0.1,-0.2 0.1,-0.3z" class="st27"/>
     </g>
    </g>
   </g>
  </g>
 </g>
</svg>