<?xml version="1.0" encoding="UTF-8"?>
<!DOCTYPE svg PUBLIC "-//W3C//DTD SVG 1.1//EN" "http://www.w3.org/Graphics/SVG/1.1/DTD/svg11.dtd">
<!-- Creator: CorelDRAW X7 -->
<svg xmlns="http://www.w3.org/2000/svg" xml:space="preserve" width="0.057in" height="0.067in" version="1.1" style="shape-rendering:geometricPrecision; text-rendering:geometricPrecision; image-rendering:optimizeQuality; fill-rule:evenodd; clip-rule:evenodd"
viewBox="0 0 57 67"
 xmlns:xlink="http://www.w3.org/1999/xlink">
 <defs>
  <style type="text/css">
   <![CDATA[
    .fil0 {fill:#F08C37}
   ]]>
  </style>
 </defs>
 <g id="Layer_x0020_1">
  <metadata id="CorelCorpID_0Corel-Layer"/>
  <path class="fil0" d="M7 13c9,0 13,-1 20,-5 3,-1 4,1 8,2 3,2 7,2 10,3l-17 25c0,-1 0,0 0,-1l-2 -3c-7,-10 -6,-9 -14,-9l8 12c3,5 6,9 8,13 2,-1 6,-9 8,-11 2,-3 5,-7 7,-11 2,-4 5,-7 7,-11 2,-3 5,-7 7,-11 -23,2 -24,-6 -28,-6 -1,0 -10,5 -12,5 -6,2 -11,1 -17,1 1,30 1,44 28,61 5,-2 9,-6 13,-9 13,-10 16,-28 16,-45 -2,1 -3,4 -4,6 -7,10 -2,10 -7,21 -3,7 -12,17 -18,19 -6,-4 -13,-10 -16,-17 -4,-9 -5,-19 -5,-29z"/>
 </g>
</svg>
