<?xml version="1.0" encoding="UTF-8"?>
<!DOCTYPE svg PUBLIC "-//W3C//DTD SVG 1.1//EN" "http://www.w3.org/Graphics/SVG/1.1/DTD/svg11.dtd">
<!-- Creator: CorelDRAW X7 -->
<svg xmlns="http://www.w3.org/2000/svg" xml:space="preserve" width="0.067in" height="0.067in" version="1.1" style="shape-rendering:geometricPrecision; text-rendering:geometricPrecision; image-rendering:optimizeQuality; fill-rule:evenodd; clip-rule:evenodd"
viewBox="0 0 67 67"
 xmlns:xlink="http://www.w3.org/1999/xlink">
 <defs>
  <style type="text/css">
   <![CDATA[
    .fil0 {fill:#F08C37}
   ]]>
  </style>
 </defs>
 <g id="Layer_x0020_1">
  <metadata id="CorelCorpID_0Corel-Layer"/>
  <g id="_278186984">
   <path class="fil0" d="M56 4c0,-1 0,-1 -1,-2 0,0 -1,1 -1,1 -1,1 -1,2 -2,3 0,0 -1,-1 -2,-1 -3,-2 -6,-3 -9,-4 -2,0 -5,-1 -5,-1 -1,1 -7,-1 -15,3 -2,0 -3,1 -5,2 -3,2 -5,4 -7,6 -2,2 -4,5 -5,7 -2,4 -3,8 -4,13 -1,16 9,30 24,35 2,1 5,2 6,0 1,-1 1,-3 0,-4 -1,0 -1,0 -3,-1 -4,-1 -8,-3 -11,-5 -2,-2 -3,-3 -4,-4 -12,-15 -7,-37 10,-44 5,-2 10,-3 15,-2 3,0 9,2 12,4 0,1 -1,2 -1,2 -1,1 -2,2 -1,3 1,0 4,-1 5,-1 5,0 7,0 6,-3 0,-1 -2,-7 -2,-7z"/>
   <path class="fil0" d="M30 36c1,1 3,2 4,2 2,1 4,2 5,3 3,1 6,3 10,5 0,0 1,1 2,0 1,0 3,-3 0,-4 -4,-2 -8,-4 -12,-6 -1,-1 -3,-2 -5,-3 0,0 0,0 0,-1l0 -13c0,-1 0,-5 0,-6 -1,-1 -2,-1 -3,-1 -1,1 -1,1 -1,2 0,3 0,21 0,22z"/>
   <path class="fil0" d="M43 65c1,-2 0,-4 -2,-4 -1,0 -3,0 -3,1 -3,1 -2,5 1,5 1,0 2,-1 3,-1 1,0 1,-1 1,-1z"/>
   <path class="fil0" d="M65 44c1,-2 -1,-4 -3,-4 -1,1 -2,3 -2,4 -1,2 1,4 3,3 1,0 2,-2 2,-3z"/>
   <path class="fil0" d="M61 53c0,-1 0,-2 -1,-3 -1,0 -1,0 -2,0 -2,0 -4,2 -4,3 0,2 1,4 3,3 1,0 2,0 2,-1 1,-1 1,-1 2,-2z"/>
   <path class="fil0" d="M67 35c0,0 0,-2 0,-3 -1,-3 -5,-3 -5,0 -1,0 -1,2 0,3 0,3 4,3 5,0z"/>
   <path class="fil0" d="M53 60c1,-2 -1,-3 -3,-3 -1,0 -2,1 -2,1 -3,2 -1,5 1,5 1,0 2,-1 2,-1 1,0 2,-1 2,-2z"/>
   <path class="fil0" d="M61 20c-2,0 -2,2 -1,4 0,1 0,2 1,2 0,1 1,1 2,1 4,-1 1,-6 1,-7 -1,0 -2,-1 -3,0z"/>
  </g>
 </g>
</svg>
