<?xml version="1.0" encoding="UTF-8"?>
<svg xmlns="http://www.w3.org/2000/svg" viewBox="0 0 512 512" fill="#162c56" width="512" height="512"><g id="Outline"><path d="M48,440H98.867L88.205,486.2A8,8,0,0,0,96,496h96V480H176V440h56v8H216a8,8,0,0,0-8,8v32a8,8,0,0,0,8,8h88a7.99,7.99,0,0,0,6.6-3.479A49.968,49.968,0,0,0,328.98,496H448a40.045,40.045,0,0,0,40-40V416H472v40a24.027,24.027,0,0,1-24,24H352V448h80a8,8,0,0,0,5.755-2.443,65.91,65.91,0,0,0,9.132-79.128l-13.774,8.142A49.918,49.918,0,0,1,428.45,432H368V404.281l44.438-29.625A8,8,0,0,0,416,368V350.246l25.94-6.485a8,8,0,0,0,4.716-12.2L422.948,296H440a32.036,32.036,0,0,1,32,32v72h16V328a48.055,48.055,0,0,0-48-48H408a8.009,8.009,0,0,1-8-8V245.237a80.578,80.578,0,0,0,25.52-23.417A64.1,64.1,0,0,0,488,272a8,8,0,0,0,8-8V112a64.072,64.072,0,0,0-64-64h-.512a95.931,95.931,0,0,0-126.7-14.541L314,46.541A80.01,80.01,0,0,1,440,112v16h-4L390.4,67.2a8,8,0,0,0-13.184.561l-1.84,2.943a122.213,122.213,0,0,1-44.28,42.014A122.238,122.238,0,0,1,280,127.735V112a79.678,79.678,0,0,1,21.817-54.907L290.183,46.11A95.615,95.615,0,0,0,264,112v16a24.027,24.027,0,0,0-24,24v24a24.034,24.034,0,0,0,16.3,22.726,79.089,79.089,0,0,0,37.881,60.713l5.7,3.421,8.232-13.72-5.7-3.42A63.019,63.019,0,0,1,272.522,200h11.161A80.368,80.368,0,0,0,320,245.237V272a8.009,8.009,0,0,1-8,8H288v16h9.052l-23.708,35.562a8,8,0,0,0,4.716,12.2L304,350.246V368a8,8,0,0,0,3.562,6.656L352,404.281V432h-6.111L344,431.056V416H328v7.056l-5.67-2.835A40.261,40.261,0,0,0,304.45,416H290.605a50.042,50.042,0,0,1,4.281-41.428l-13.772-8.144A65.813,65.813,0,0,0,272,397.812V280a32.036,32.036,0,0,0-32-32H48a32.036,32.036,0,0,0-32,32v16H32V280a16.019,16.019,0,0,1,16-16H240a16.019,16.019,0,0,1,16,16V408a16.019,16.019,0,0,1-16,16H176V384a8,8,0,0,0-8-8H120a8,8,0,0,0-7.8,6.2L102.559,424H48a16.019,16.019,0,0,1-16-16V312H16v96A32.036,32.036,0,0,0,48,440ZM480,112v40a24.027,24.027,0,0,0-24-24V112a95.4,95.4,0,0,0-12.034-46.49A48.087,48.087,0,0,1,480,112Zm-40,64V144h16a8.009,8.009,0,0,1,8,8v24a8.009,8.009,0,0,1-8,8H440Zm0,24h16a24.027,24.027,0,0,0,24-24v79.333A48.078,48.078,0,0,1,440,208ZM280,176v8H264a8.009,8.009,0,0,1-8-8V152a8.009,8.009,0,0,1,8-8h16ZM409.536,304.726l17.511,26.266-20.987,5.247A8,8,0,0,0,400,344v19.719l-22.045,14.7ZM296,176V141.869a137.694,137.694,0,0,0,88.446-55.941L424,138.667V176a64,64,0,0,1-128,0Zm24,187.719V344a8,8,0,0,0-6.06-7.761l-20.987-5.247,17.511-26.266,31.581,73.69Zm2.987-70.392A24.019,24.019,0,0,0,336,272V252.317a80.039,80.039,0,0,0,48,0V272a24.019,24.019,0,0,0,13.013,21.327L360,379.69ZM272,408v-5.753a66.306,66.306,0,0,0,2.564,16.1,39.6,39.6,0,0,0-5.176,2.3A31.811,31.811,0,0,0,272,408Zm13.894,24.09c.686-.06,18.556-.09,18.556-.09a24.185,24.185,0,0,1,10.732,2.535L336,444.944V480h-7.02A33.9,33.9,0,0,1,312,475.461V456a8,8,0,0,0-8-8H265.394A24.157,24.157,0,0,1,285.894,432.09ZM248,438.987a31.709,31.709,0,0,0,4.683-1.614A39.766,39.766,0,0,0,248.829,448H248ZM256,464h40v16H224V464ZM126.364,392H160v88H106.057ZM336,148a12,12,0,1,1-12-12A12.013,12.013,0,0,1,336,148Zm48,0a12,12,0,1,1,12,12A12.013,12.013,0,0,1,384,148Zm-24,60a24.027,24.027,0,0,1-24-24h16a8,8,0,0,0,16,0h16A24.027,24.027,0,0,1,360,208ZM312.447,95.326l-14.242-7.291c.821-1.614,20.676-39.536,68.154-41.363l.616,15.989C329.09,64.118,313.108,94.053,312.447,95.326ZM88,280v16H56V280Zm48,16H104V280h32Zm48,0H152V280h32Zm48-16v16H200V280Z"/></g></svg>
