<svg id="Layer_3" fill="#162c56" enable-background="new 0 0 64 64" height="512" viewBox="0 0 64 64" width="512" xmlns="http://www.w3.org/2000/svg"><path d="m54.897 25.5c1.246-.678 2.103-1.984 2.103-3.5 0-1.744-1.128-3.214-2.687-3.761.433-.639.687-1.41.687-2.239 0-2.206-1.794-4-4-4-.05 0-.097.013-.147.015.087-.326.147-.662.147-1.015 0-2.206-1.794-4-4-4-.353 0-.689.06-1.015.147.002-.05.015-.097.015-.147 0-2.206-1.794-4-4-4-1.232 0-2.321.571-3.056 1.449-.271-1.943-1.926-3.449-3.944-3.449-1.201 0-2.266.542-3 1.382-.734-.84-1.799-1.382-3-1.382-2.018 0-3.673 1.506-3.944 3.449-.735-.878-1.824-1.449-3.056-1.449-2.206 0-4 1.794-4 4 0 .05.013.097.015.147-.326-.087-.662-.147-1.015-.147-2.206 0-4 1.794-4 4 0 .353.06.689.147 1.015-.05-.002-.097-.015-.147-.015-2.206 0-4 1.794-4 4 0 .829.254 1.6.687 2.239-1.559.547-2.687 2.017-2.687 3.761 0 1.516.857 2.822 2.103 3.5-1.246.678-2.103 1.984-2.103 3.5 0 1.744 1.128 3.214 2.687 3.761-.433.639-.687 1.41-.687 2.239 0 2.206 1.794 4 4 4 .202 0 .395-.031.589-.06-.366.604-.589 1.304-.589 2.06 0 2.206 1.794 4 4 4 .353 0 .689-.06 1.015-.147-.002.05-.015.097-.015.147 0 2.206 1.794 4 4 4 1.232 0 2.321-.571 3.056-1.449.271 1.943 1.926 3.449 3.944 3.449.732 0 1.409-.212 2-.556v2.556h-1c-.553 0-1 .447-1 1v8c0 .553.447 1 1 1h4c.553 0 1-.447 1-1v-8c0-.553-.447-1-1-1h-1v-2.556c.591.344 1.268.556 2 .556 2.018 0 3.673-1.506 3.944-3.449.735.878 1.824 1.449 3.056 1.449 2.206 0 4-1.794 4-4 0-.05-.013-.097-.015-.147.326.087.662.147 1.015.147 2.206 0 4-1.794 4-4 0-.756-.223-1.456-.589-2.06.194.029.387.06.589.06 2.206 0 4-1.794 4-4 0-.829-.254-1.6-.687-2.239 1.559-.547 2.687-2.017 2.687-3.761 0-1.516-.857-2.822-2.103-3.5zm-21.897 35.5h-2v-6h2zm22-39c0 1.103-.897 2-2 2s-2-.897-2-2 .897-2 2-2 2 .897 2 2zm-2-6c0 1.103-.897 2-2 2s-2-.897-2-2 .897-2 2-2 2 .897 2 2zm-4-5c0 1.103-.897 2-2 2s-2-.897-2-2 .897-2 2-2 2 .897 2 2zm-7-6c1.103 0 2 .897 2 2s-.897 2-2 2-2-.897-2-2 .897-2 2-2zm-7-2c1.103 0 2 .897 2 2s-.897 2-2 2-2-.897-2-2 .897-2 2-2zm-6 0c1.103 0 2 .897 2 2s-.897 2-2 2-2-.897-2-2 .897-2 2-2zm-7 2c1.103 0 2 .897 2 2s-.897 2-2 2-2-.897-2-2 .897-2 2-2zm-5 4c1.103 0 2 .897 2 2s-.897 2-2 2-2-.897-2-2 .897-2 2-2zm-4 5c1.103 0 2 .897 2 2s-.897 2-2 2-2-.897-2-2 .897-2 2-2zm-2 6c1.103 0 2 .897 2 2s-.897 2-2 2-2-.897-2-2 .897-2 2-2zm-2 9c0-1.103.897-2 2-2s2 .897 2 2-.897 2-2 2-2-.897-2-2zm2 6c0-1.103.897-2 2-2s2 .897 2 2-.897 2-2 2-2-.897-2-2zm4 6c0-1.103.897-2 2-2s2 .897 2 2-.897 2-2 2-2-.897-2-2zm7 6c-1.103 0-2-.897-2-2s.897-2 2-2 2 .897 2 2-.897 2-2 2zm7 2c-1.103 0-2-.897-2-2s.897-2 2-2 2 .897 2 2-.897 2-2 2zm6 0c-1.103 0-2-.897-2-2s.897-2 2-2 2 .897 2 2-.897 2-2 2zm3.056-4.551c-.735-.878-1.824-1.449-3.056-1.449-1.201 0-2.266.542-3 1.382-.734-.84-1.799-1.382-3-1.382-1.232 0-2.321.571-3.056 1.449-.271-1.943-1.926-3.449-3.944-3.449-.353 0-.689.06-1.015.147.002-.05.015-.097.015-.147 0-2.206-1.794-4-4-4-.202 0-.395.031-.589.06.366-.604.589-1.304.589-2.06 0-1.744-1.128-3.214-2.687-3.761.433-.639.687-1.41.687-2.239 0-1.516-.857-2.822-2.103-3.5 1.246-.678 2.103-1.984 2.103-3.5 0-.829-.254-1.6-.687-2.239 1.559-.547 2.687-2.017 2.687-3.761 0-.353-.06-.689-.147-1.015.05.002.097.015.147.015 2.206 0 4-1.794 4-4 0-.05-.013-.097-.015-.147.326.087.662.147 1.015.147 2.018 0 3.673-1.506 3.944-3.449.735.878 1.824 1.449 3.056 1.449 1.201 0 2.266-.542 3-1.382.734.84 1.799 1.382 3 1.382 1.232 0 2.321-.571 3.056-1.449.271 1.943 1.926 3.449 3.944 3.449.353 0 .689-.06 1.015-.147-.002.05-.015.097-.015.147 0 2.206 1.794 4 4 4 .05 0 .097-.013.147-.015-.087.326-.147.662-.147 1.015 0 1.744 1.128 3.214 2.687 3.761-.433.639-.687 1.41-.687 2.239 0 1.516.857 2.822 2.103 3.5-1.246.678-2.103 1.984-2.103 3.5 0 .829.254 1.6.687 2.239-1.559.547-2.687 2.017-2.687 3.761 0 .756.223 1.456.589 2.06-.194-.029-.387-.06-.589-.06-2.206 0-4 1.794-4 4 0 .05.013.097.015.147-.326-.087-.662-.147-1.015-.147-2.018 0-3.673 1.506-3.944 3.449zm3.944 2.551c-1.103 0-2-.897-2-2s.897-2 2-2 2 .897 2 2-.897 2-2 2zm5-4c-1.103 0-2-.897-2-2s.897-2 2-2 2 .897 2 2-.897 2-2 2zm4-6c-1.103 0-2-.897-2-2s.897-2 2-2 2 .897 2 2-.897 2-2 2zm2-6c-1.103 0-2-.897-2-2s.897-2 2-2 2 .897 2 2-.897 2-2 2z"/><path d="m45 32v-13c0-1.654-1.346-3-3-3s-3 1.346-2.995 2.9l-.617 6.178c-.122-.051-.254-.078-.388-.078h-2c-.266 0-.52.105-.707.293l-3.293 3.293-3.293-3.293c-.187-.188-.441-.293-.707-.293h-2c-.135 0-.268.027-.389.079l-.611-6.079c0-1.654-1.346-3-3-3s-3 1.346-3 3v13c0 .266.105.52.293.707l3.707 3.707v2.586c0 .553.447 1 1 1h8 8c.553 0 1-.447 1-1v-2.586l3.707-3.707c.188-.187.293-.441.293-.707zm-20.293 3.293-3.707-3.707v-12.586c0-.552.448-1 1-1s1 .448 1.005 1.1l1 9.999v.001c.022.229.124.443.288.607l3 3 1.414-1.414-2.707-2.707v-1.172l.414-.414h1.172l3.414 3.414v7.586h-6v-2c0-.266-.105-.52-.293-.707zm18.293-3.707-3.707 3.707c-.188.187-.293.441-.293.707v2h-6v-7.586l3.414-3.414h1.172l.414.414v1.172l-2.707 2.707 1.414 1.414 3-3c.164-.164.266-.379.288-.607 0-.001 0-.001 0-.001l1.005-10.099c0-.552.448-1 1-1s1 .448 1 1z"/><path d="m27.684 19.948c1.581.527 2.841 1.787 3.368 3.368.136.409.517.684.948.684s.812-.275.948-.684c.527-1.581 1.787-2.841 3.368-3.368.409-.136.684-.517.684-.948s-.275-.812-.684-.948c-1.581-.527-2.841-1.787-3.368-3.368-.136-.409-.517-.684-.948-.684s-.812.275-.948.684c-.527 1.581-1.787 2.841-3.368 3.368-.409.136-.684.517-.684.948s.275.812.684.948zm4.316-2.753c.492.701 1.104 1.312 1.805 1.805-.701.492-1.312 1.104-1.805 1.805-.492-.701-1.104-1.312-1.805-1.805.701-.492 1.313-1.104 1.805-1.805z"/></svg>