<svg id="Layer_1" data-name="Layer 1" xmlns="http://www.w3.org/2000/svg" xmlns:xlink="http://www.w3.org/1999/xlink" viewBox="0 0 350 350"><defs><style>.cls-1{fill:#eff5fd;}.cls-2{fill:url(#linear-gradient);}.cls-3{fill:url(#linear-gradient-2);}.cls-4{fill:url(#linear-gradient-3);}.cls-5{fill:url(#linear-gradient-4);}.cls-6{fill:#f1f6fd;}.cls-7{fill:#0d0873;}.cls-8{fill:url(#linear-gradient-5);}.cls-9{fill:url(#linear-gradient-6);}.cls-10,.cls-19,.cls-20,.cls-21,.cls-22{fill:none;stroke-linecap:round;}.cls-10{stroke-width:3px;stroke:url(#linear-gradient-7);}.cls-11{fill:url(#linear-gradient-8);}.cls-12{fill:#fff;}.cls-12,.cls-13{fill-rule:evenodd;}.cls-13{fill:#cfe0fb;}.cls-14{fill:url(#linear-gradient-9);}.cls-15{fill:#0c0772;}.cls-16{fill:url(#linear-gradient-10);}.cls-17{fill:url(#linear-gradient-11);}.cls-18{fill:url(#linear-gradient-12);}.cls-19{stroke:#2668f1;}.cls-19,.cls-20,.cls-21,.cls-22{stroke-linejoin:round;stroke-width:5px;}.cls-20{stroke:url(#linear-gradient-13);}.cls-21{stroke:url(#linear-gradient-14);}.cls-22{stroke:url(#linear-gradient-15);}</style><linearGradient id="linear-gradient" x1="-577" y1="189.22" x2="-576.98" y2="190.62" gradientTransform="matrix(231.8, 0, 0, -232.14, 133922.79, 44317.85)" gradientUnits="userSpaceOnUse"><stop offset="0" stop-color="#fff"/><stop offset="1" stop-color="#eff5fd"/></linearGradient><linearGradient id="linear-gradient-2" x1="-582.58" y1="191.13" x2="-582.91" y2="190.99" gradientTransform="translate(-101038.73 19292.01) rotate(180) scale(173.51 100.25)" gradientUnits="userSpaceOnUse"><stop offset="0" stop-color="#e9f1fd"/><stop offset="1" stop-color="#d3e1fa"/></linearGradient><linearGradient id="linear-gradient-3" x1="-586.22" y1="190.76" x2="-586.22" y2="190.12" gradientTransform="translate(-50723.26 34904.88) rotate(180) scale(86.75 182.16)" gradientUnits="userSpaceOnUse"><stop offset="0" stop-color="#e9f1fd"/><stop offset="1" stop-color="#d3e1fa" stop-opacity="0"/></linearGradient><linearGradient id="linear-gradient-4" x1="-586.22" y1="190.06" x2="-586.22" y2="190.57" gradientTransform="translate(-50808.77 47778.73) rotate(180) scale(86.75 249.92)" gradientUnits="userSpaceOnUse"><stop offset="0" stop-color="#e9f1fd" stop-opacity="0"/><stop offset="1" stop-color="#d3e1fa"/></linearGradient><linearGradient id="linear-gradient-5" x1="225.07" y1="156.56" x2="289.88" y2="128.46" gradientTransform="matrix(-1, 0, 0, 1, 513.63, 0)" gradientUnits="userSpaceOnUse"><stop offset="0.05" stop-color="#bbcef9"/><stop offset="1" stop-color="#dfeafe"/></linearGradient><linearGradient id="linear-gradient-6" x1="309.96" y1="126.47" x2="346.77" y2="110.51" gradientTransform="translate(-121.59)" xlink:href="#linear-gradient-5"/><linearGradient id="linear-gradient-7" x1="-649.47" y1="189.21" x2="-649.51" y2="188.21" gradientTransform="matrix(-8.42, 1.71, 8.21, 40.52, -6866.21, -6416.91)" gradientUnits="userSpaceOnUse"><stop offset="0" stop-color="#93baf8" stop-opacity="0"/><stop offset="1" stop-color="#93baf8"/></linearGradient><linearGradient id="linear-gradient-8" x1="155.78" y1="226.06" x2="263.27" y2="179.44" gradientUnits="userSpaceOnUse"><stop offset="0.05" stop-color="#81aaf7"/><stop offset="1" stop-color="#3770ee"/></linearGradient><linearGradient id="linear-gradient-9" x1="-524.9" y1="193.38" x2="-524.9" y2="192.38" gradientTransform="matrix(10.68, 0, 0, -44.79, 5696.9, 8820.76)" gradientUnits="userSpaceOnUse"><stop offset="0" stop-color="#deeafc"/><stop offset="1" stop-color="#93baf8"/></linearGradient><linearGradient id="linear-gradient-10" x1="-542.93" y1="193.57" x2="-542.76" y2="193.15" gradientTransform="matrix(15.92, 0, 0, -39.27, 8806.69, 7731.99)" gradientUnits="userSpaceOnUse"><stop offset="0" stop-color="#93baf8"/><stop offset="1" stop-color="#2362eb"/></linearGradient><linearGradient id="linear-gradient-11" x1="-517.22" y1="193.86" x2="-517.22" y2="192.86" gradientTransform="matrix(9.36, 0, 0, -39.27, 5001, 7731.09)" xlink:href="#linear-gradient-9"/><linearGradient id="linear-gradient-12" x1="-524.9" y1="193.38" x2="-524.9" y2="192.38" gradientTransform="matrix(10.68, 0, 0, -44.79, 5759.31, 8779.84)" xlink:href="#linear-gradient-9"/><linearGradient id="linear-gradient-13" x1="-566.63" y1="195.18" x2="-567.07" y2="194.88" gradientTransform="matrix(45.27, 0, 0, -27.07, 25772.14, 5362.91)" gradientUnits="userSpaceOnUse"><stop offset="0" stop-color="#2668f1"/><stop offset="1" stop-color="#1032ab"/></linearGradient><linearGradient id="linear-gradient-14" x1="-440.17" y1="194.43" x2="-440.24" y2="192.39" gradientTransform="matrix(4.19, 0, 0, -44.69, 1925.2, 8768.95)" gradientUnits="userSpaceOnUse"><stop offset="0" stop-color="#2668f1"/><stop offset="1" stop-color="#0d0873"/></linearGradient><linearGradient id="linear-gradient-15" x1="-440.18" y1="193.49" x2="-440.18" y2="192.8" gradientTransform="matrix(4.18, 0, 0, -39.85, 2003.31, 7806.65)" xlink:href="#linear-gradient-14"/></defs><path class="cls-1" d="M324.85,259.51l-18.94-10.93a145.51,145.51,0,0,0-252-145.51L35,92.14a167.37,167.37,0,0,1,289.9,167.37ZM22.44,232.16,43,224.81a145.67,145.67,0,0,0,184.31,88.48L234.44,334a167.56,167.56,0,0,1-212-101.8Z"/><path class="cls-1" d="M296.13,243.27l-7.28-4.21A125.32,125.32,0,0,0,71.79,113.74l-7.29-4.21A133.73,133.73,0,0,1,296.13,243.27ZM54.4,220.44l7.88-2.9a127.38,127.38,0,0,0,158.85,76.55l2.66,8A135.8,135.8,0,0,1,54.4,220.44Z"/><ellipse class="cls-2" cx="179.9" cy="175.82" rx="115.9" ry="116.07"/><path class="cls-3" d="M90.32,93.4l86.75,50.12L90.32,193.65,3.56,143.52Z"/><path class="cls-4" d="M90.2,193.69,177,143.56v132L90.2,325.72Z"/><path class="cls-5" d="M90.28,193.51,3.53,143.39V343.18l86.75.12Z"/><path class="cls-6" d="M317,105.35a1,1,0,0,1-1-1v-3.69a1,1,0,0,1,1-1"/><ellipse class="cls-7" cx="153.26" cy="90.09" rx="3.24" ry="3.25"/><path class="cls-8" d="M306.94,126v41.59a4.21,4.21,0,0,1-4.22,4.22H264.23l-10.84,10.85V172.45H236.92a4.22,4.22,0,0,1-4.22-4.22v-43A4.22,4.22,0,0,1,237,121c13.12.25,52.58,1,65.67.8A4.23,4.23,0,0,1,306.94,126Z"/><path class="cls-9" d="M177.94,109.1v23.63a2.4,2.4,0,0,0,2.39,2.4h21.86l6.16,6.15V135.5h9.36a2.39,2.39,0,0,0,2.4-2.4V108.65a2.39,2.39,0,0,0-2.44-2.4c-7.46.14-29.88.54-37.31.45A2.4,2.4,0,0,0,177.94,109.1Z"/><path class="cls-10" d="M153,142.13l.21-42.23"/><path class="cls-11" d="M125.3,175.33v69a7,7,0,0,0,7,7h63.83l18,18V252.41h27.33a7,7,0,0,0,7-7V174a7,7,0,0,0-7.13-7c-21.77.41-87.23,1.58-108.94,1.33A7,7,0,0,0,125.3,175.33Z"/><path class="cls-12" d="M148,189.28h50.4v5.05H148Zm0,33.64h84V228H148Z"/><path class="cls-13" d="M148,206.1h50.4v5.05H148Z"/><path class="cls-14" d="M98.39,169.47c0-3.93-2.39-8.51-5.33-10.21s-5.34.1-5.34,4v29.25c0,3.94,2.39,8.51,5.34,10.22s5.33-.11,5.33-4Z"/><path class="cls-15" d="M96.38,169.45c0-4.31-3.29-9.32-7.35-11.19s-7.35.12-7.35,4.43v32c0,4.31,3.29,9.32,7.35,11.19s7.35-.12,7.35-4.43Z"/><path class="cls-15" d="M123.43,202.68c0-2.68-1.63-3.91-3.63-2.75l-2.65,1.53c-2,1.16-3.63,4.27-3.63,6.95s1.63,3.91,3.63,2.75l2.65-1.53c2-1.16,3.63-4.27,3.63-6.95Z"/><path class="cls-16" d="M162.49,158.24c7.73-1.46,11.09-9.68,11.09-21.1S165.1,119,159,119c-2.74,0-.36,10.59,0,19.28C159.42,149,161.11,158.5,162.49,158.24Z"/><path class="cls-17" d="M165,128.49c0-3.45-2.1-7.46-4.68-9s-4.68.1-4.68,3.55v25.64c0,3.45,2.1,7.46,4.68,9s4.68-.1,4.68-3.55Z"/><path class="cls-15" d="M165.5,126.44c0-4.31-3.29-9.32-7.35-11.19s-7.35.12-7.35,4.43v32c0,4.31,3.29,9.32,7.35,11.19s7.35-.12,7.35-4.43Z"/><path class="cls-18" d="M160.8,128.48c0-3.94-2.39-8.52-5.33-10.22s-5.34.11-5.34,4v29.26c0,3.93,2.39,8.51,5.34,10.21s5.33-.11,5.33-4Z"/><path class="cls-19" d="M150.05,71.34A23.72,23.72,0,0,1,156.88,78"/><path class="cls-20" d="M144.86,69c-6.5-1.91-14.27-.71-22.61,4.11S106.11,85.78,99.6,95.24"/><path class="cls-21" d="M85,125.79a93.12,93.12,0,0,0-4.18,26.66v18"/><path class="cls-22" d="M159.49,82.7c2.68,5.78,4.19,13.14,4.19,21.83v18"/></svg>