<svg height="512" viewBox="0 0 64 64" width="512" xmlns="http://www.w3.org/2000/svg" fill="#14C44C"><g id="counsel"><path d="m61 2h-18a1 1 0 0 0 -1 1v12a1 1 0 0 0 1 1h2v3a1 1 0 0 0 1.555.832l5.745-3.832h8.7a1 1 0 0 0 1-1v-12a1 1 0 0 0 -1-1zm-1 12h-8a1.006 1.006 0 0 0 -.555.168l-4.445 2.963v-2.131a1 1 0 0 0 -1-1h-2v-10h16z"/><path d="m56 6h2v2h-2z"/><path d="m50 6h4v2h-4z"/><path d="m46 6h2v2h-2z"/><path d="m46 10h6v2h-6z"/><path d="m41.949 34h.051a3 3 0 0 0 3-3v-1a3 3 0 0 0 -1.826-2.76l1.533-1.533a1 1 0 0 0 .293-.707v-2a9.011 9.011 0 0 0 -9-9h-8a9.011 9.011 0 0 0 -9 9v2a1 1 0 0 0 .293.707l1.533 1.533a3 3 0 0 0 -1.826 2.76v1a3 3 0 0 0 3 3h.051a10 10 0 0 0 19.9 0zm1.051-3a1 1 0 0 1 -1 1v-3a1 1 0 0 1 1 1zm-22-8a7.008 7.008 0 0 1 7-7h8a7.008 7.008 0 0 1 7 7v1.586l-1 1v-.586a1 1 0 0 0 -.737-.965l-11-3a1.009 1.009 0 0 0 -.657.046l-7 3a1 1 0 0 0 -.606.919v.586l-1-1zm0 8v-1a1 1 0 0 1 1-1v3a1 1 0 0 1 -1-1zm11 10a8.009 8.009 0 0 1 -8-8v-7.341l6.073-2.6 9.927 2.705v7.236a8.009 8.009 0 0 1 -8 8z"/><path d="m38 43h-12a18.23 18.23 0 0 0 -4 .443v-2.443a1 1 0 0 0 -1-1h-2v-3a1 1 0 0 0 -1.555-.832l-5.745 3.832h-8.7a1 1 0 0 0 -1 1v12a1 1 0 0 0 1 1h6.423a18.011 18.011 0 0 0 -1.423 7 1 1 0 0 0 1 1h46a1 1 0 0 0 1-1 18 18 0 0 0 -18-18zm-1.2 2-1.665 9h-6.268l-1.667-9zm-32.8-3h8a1.006 1.006 0 0 0 .555-.168l4.445-2.963v2.131a1 1 0 0 0 1 1h2v10h-16zm6.03 18a15.631 15.631 0 0 1 1.6-6h9.37a1 1 0 0 0 1-1v-7.49a16.131 16.131 0 0 1 3.174-.48l1.877 10.152a1 1 0 0 0 .984.818h7.93a1 1 0 0 0 .984-.818l1.876-10.142a15.967 15.967 0 0 1 15.144 14.96z"/><path d="m54 10h4v2h-4z"/><path d="m3 12h10.7l5.748 3.832a1 1 0 0 0 1.552-.832v-3h2a1 1 0 0 0 1-1v-8a1 1 0 0 0 -1-1h-20a1 1 0 0 0 -1 1v8a1 1 0 0 0 1 1zm1-8h18v6h-2a1 1 0 0 0 -1 1v2.131l-4.445-2.963a1.006 1.006 0 0 0 -.555-.168h-10z"/><path d="m6 6h4v2h-4z"/><path d="m12 6h4v2h-4z"/><path d="m18 6h2v2h-2z"/><path d="m6 48h2v2h-2z"/><path d="m10 48h4v2h-4z"/><path d="m16 48h2v2h-2z"/><path d="m12 44h6v2h-6z"/><path d="m6 44h4v2h-4z"/></g></svg>